# AST/ASF file generated using VICON BodyLanguage
# -----------------------------------------------
:version 1.10
:name VICON
:units
  mass 1.0
  length 0.45
  angle deg
:documentation
   .ast/.asf automatically generated from VICON data using
   VICON BodyBuilder and BodyLanguage model FoxedUp or BRILLIANT.MOD
:root
   order TX TY TZ RX RY RZ
   axis XYZ
   position 0 0 0  
   orientation 0 0 0 
:bonedata
  begin
     id 1 
     name lhipjoint
     direction 0.631061 -0.684803 0.364427 
     length 2.59943 
     axis 0 0 0  XYZ
  end
  begin
     id 2 
     name lfemur
     direction 0.34202 -0.939693 0  
     length 6.69088  
     axis 0 0 20  XYZ
    dof rx ry rz
    limits (-160.0 20.0)
           (-70.0 70.0)
           (-60.0 70.0)
  end
  begin
     id 3 
     name ltibia
     direction 0.34202 -0.939693 0   
     length 7.83506   
     axis 0 0 20   XYZ
    dof rx
    limits (-10.0 170.0)
  end
  begin
     id 4 
     name lfoot
     direction 0.176279 -0.484322 0.856947   
     length 2.95235   
     axis -90 7.62852e-016 20   XYZ
    dof rx rz
    limits (-45.0 90.0)
           (-70.0 20.0)
  end
  begin
     id 5 
     name ltoes
     direction 1.53551e-011 -4.21828e-011 1   
     length 1.41888   
     axis -90 7.62852e-016 20   XYZ
    dof rx
    limits (-90.0 20.0)
  end
  begin
     id 6 
     name rhipjoint
     direction -0.641155 -0.677457 0.360518   
     length 2.62761  
     axis 0 0 0  XYZ 
  end
  begin
     id 7 
     name rfemur
     direction -0.34202 -0.939693 0   
     length 6.52283   
     axis 0 0 -20   XYZ
    dof rx ry rz
    limits (-160.0 20.0)
           (-70.0 70.0)
           (-70.0 60.0)
  end
  begin
     id 8 
     name rtibia
     direction -0.34202 -0.939693 0   
     length 7.74138   
     axis 0 0 -20   XYZ
    dof rx
    limits (-10.0 170.0)
 end
 begin
     id 9 
     name rfoot
     direction -0.186474 -0.512334 0.838297   
     length 2.72941  
     axis -90 -7.62852e-016 -20   XYZ
    dof rx rz
    limits (-45.0 90.0)
           (-20.0 70.0)
  end
  begin
     id 10 
     name rtoes
     direction -1.53683e-011 -4.22007e-011 1   
     length 1.30521   
     axis -90 -7.62852e-016 -20   XYZ
    dof rx
    limits (-90.0 20.0)
  end
  begin
     id 11 
     name lowerback
     direction -0.0121201 0.985605 -0.168631   
     length 2.60975   
     axis 0 0 0   XYZ
    dof rx ry rz
    limits (-20.0 45.0)
           (-30.0 30.0)
           (-30.0 30.0)
  end
  begin
     id 12 
     name upperback
     direction -0.019495 0.999568 -0.0220039   
     length 2.65091   
     axis 0 0 0   XYZ
    dof rx ry rz
    limits (-20.0 45.0)
           (-30.0 30.0)
           (-30.0 30.0)
  end
  begin
     id 13 
     name thorax
     direction -0.0125765 0.998661 0.0501718   
     length 2.70267   
     axis 0 0 0   XYZ
    dof rx ry rz
    limits (-20.0 45.0)
           (-30.0 30.0)
           (-30.0 30.0)
  end
  begin
     id 14 
     name lowerneck
     direction -0.0309438 0.997491 -0.0636732   
     length 1.56498   
     axis 0 0 0   XYZ
    dof rx ry rz
    limits (-20.0 45.0)
           (-30.0 30.0)
           (-30.0 30.0)
  end
  begin
     id 15 
     name upperneck
     direction -0.00130017 0.992397 -0.123074   
     length 1.5414   
     axis 0 0 0   XYZ
    dof rx ry rz
    limits (-20.0 45.0)
           (-30.0 30.0)
           (-30.0 30.0)
  end
  begin
     id 16
     name head
     direction 0.00242507 0.999315 -0.0369171  
     length 1.60129  
     axis 0 0 0   XYZ
    dof rx ry rz
    limits (-20.0 45.0)
           (-30.0 30.0)
           (-30.0 30.0)
  end
  begin
     id 17 
     name lclavicle
     direction 0.996744 0.0363396 -0.0719802  
     length 4.63989  
     axis 0 0 0   XYZ
    dof ry rz
    limits (-20.0 10.0)
           (0.0 20.0)
  end
  begin
     id 18 
     name lhumerus
     direction 1 -4.49035e-011 -2.38432e-027   
     length 4.58161   
     axis 180 -30 -90   XYZ
    dof rx ry rz
    limits (-60.0 90.0)
           (-90.0 90.0)
           (-90.0 90.0)
  end
  begin
     id 19
     name lradius
     direction 1 0.000357117 -0.000206182   
     length 3.43782   
     axis 180 -30 -90   XYZ
    dof rx
    limits (-10.0 170.0)
  end
  begin
     id 20
     name lwrist
     direction 1 -7.34592e-005 -0.000404398   
     length 1.71891   
     axis 7.40711e-015 90 90   XYZ
    dof ry
    limits (-180.0 0.0)
 end
  begin
     id 21 
     name lhand
     direction 1 -4.48735e-011 -2.22254e-026   
     length 1.04662   
     axis 1.41817e-014 90 90   XYZ
    dof rx rz
    limits (-90.0 90.0)
           (-45.0 45.0)
  end
  begin
     id 22 
     name lfingers
     direction 1 -4.49414e-011 -4.44507e-026   
     length 0.843814   
     axis 2.83634e-014 90 90   XYZ
    dof rx
    limits (0.0 90.0)
  end
  begin
     id 23
     name lthumb
     direction 0.707107 -6.3482e-011 0.707107   
     length 1.21155   
     axis -90 45 2.85299e-015   XYZ
    dof rx rz
    limits (-45.0 45.0)
           (-45.0 45.0)
  end
  begin
     id 24 
     name rclavicle
     direction -0.997328 0.0105626 0.0722925   
     length 4.0272  
     axis 0 0 0   XYZ 
    dof ry rz
    limits (-10.0 20.0)
           (-20.0 0.0)
  end
  begin
     id 25 
     name rhumerus
     direction -1 -4.48913e-011 -1.83378e-027  
     length 4.53415   
     axis 180 30 90   XYZ
    dof rx ry rz
    limits (-90.0 60.0)
           (-90.0 90.0)
           (-90.0 90.0)
  end
  begin
     id 26 
     name rradius
     direction -0.999999 0.00120542 -0.000695951   
     length 3.33298   
     axis 180 30 90   XYZ
    dof rx
    limits (-10.0 170.0)
  end
  begin
     id 27 
     name rwrist
     direction -0.999999 0.000362235 -0.0013361   
     length 1.66649   
     axis 7.40711e-015 -90 -90   XYZ
    dof ry
    limits (-180.0 0.0)
  end
  begin
     id 28
     name rhand
     direction -1 -4.49379e-011 -2.22254e-026   
     length 1.21477   
     axis 1.41817e-014 -90 -90   XYZ
    dof rx rz
    limits (-90.0 90.0)
           (-45.0 45.0)
  end
  begin
     id 29
     name rfingers
     direction -1 -4.48656e-011 -4.44507e-026   
     length 0.979378   
     axis 2.83634e-014 -90 -90   XYZ
    dof rx
    limits (0.0 90.0)
  end
  begin
     id 30
     name rthumb
     direction -0.707107 -6.35052e-011 0.707107   
     length 1.4062   
     axis -90 -45 -2.85299e-015   XYZ
    dof rx rz
    limits (-45.0 45.0)
           (-45.0 45.0)
  end
:hierarchy
  begin
    root lhipjoint rhipjoint lowerback
    lhipjoint lfemur
    lfemur ltibia
    ltibia lfoot
    lfoot ltoes
    rhipjoint rfemur
    rfemur rtibia
    rtibia rfoot
    rfoot rtoes
    lowerback upperback
    upperback thorax
    thorax lowerneck lclavicle rclavicle
    lowerneck upperneck
    upperneck head
    lclavicle lhumerus
    lhumerus lradius
    lradius lwrist
    lwrist lhand lthumb
    lhand lfingers
    rclavicle rhumerus
    rhumerus rradius
    rradius rwrist
    rwrist rhand rthumb
    rhand rfingers
  end

#!OML:ASF X:\für Bonn\!DataBase\2005_08_12_Daniel\c3d\Daniel.ASF
:FULLY-SPECIFIED
:DEGREES
1
root 1.97257 17.4747 -1.39285 59.999 -85.4005 -65.8838
lowerback 6.30104 -1.20962 3.98156
upperback -0.113737 -1.34286 -0.532372
thorax -3.75895 -0.749618 -2.65993
lowerneck 1.54954 1.4984 -3.29644
upperneck 9.46844 1.83367 0.55526
head 2.6983 0.74273 0.771088
rclavicle -1.98785e-016 1.07344e-014
rhumerus -14.9074 10.8006 -11.8786
rradius 19.0911
rwrist -18.6774
rhand -21.4342 -0.177705
rfingers 7.12502
rthumb 4.95508 -30.0998
lclavicle -1.98785e-016 1.07344e-014
lhumerus -15.5861 39.8342 -3.82449
lradius 12.2986
lwrist -25.5029
lhand -21.5755 8.53402
lfingers 7.12502
lthumb 4.81862 38.4592
rfemur 4.07761 17.6032 24.5136
rtibia 23.2721
rfoot -24.423 -15.2349
rtoes -17.392
lfemur -0.109101 -12.2554 -15.2767
ltibia 35.4325
lfoot -29.7106 8.39265
ltoes -18.3328
2
root 1.97217 17.4747 -1.3928 59.9206 -85.3972 -65.803
lowerback 6.29942 -1.20311 3.97862
upperback -0.108554 -1.33465 -0.533675
thorax -3.75198 -0.745294 -2.66052
lowerneck 1.52763 1.49735 -3.27911
upperneck 9.49775 1.83301 0.551759
head 2.71229 0.742377 0.767517
rclavicle -4.5472e-015 4.37326e-015
rhumerus -14.9538 10.7695 -11.8899
rradius 19.0955
rwrist -18.7075
rhand -21.4365 -0.174794
rfingers 7.12502
rthumb 4.95284 -30.0969
lclavicle -4.5472e-015 4.37326e-015
lhumerus -15.5765 39.8049 -3.78882
lradius 12.3052
lwrist -25.5288
lhand -21.5963 8.64146
lfingers 7.12502
lthumb 4.79857 38.5671
rfemur 4.08761 17.6547 24.5308
rtibia 23.2684
rfoot -24.4305 -15.2916
rtoes -17.4308
lfemur -0.117934 -12.2274 -15.265
ltibia 35.4355
lfoot -29.7082 8.35855
ltoes -18.3352
3
root 1.97155 17.4746 -1.39187 59.8733 -85.4014 -65.7597
lowerback 6.30928 -1.2033 3.97007
upperback -0.103087 -1.33495 -0.524646
thorax -3.75143 -0.745128 -2.6462
lowerneck 1.48979 1.50183 -3.26073
upperneck 9.5315 1.84257 0.519751
head 2.73069 0.746251 0.755008
rclavicle 1.50331e-014 -2.22639e-014
rhumerus -14.9629 10.9655 -11.8968
rradius 19.1184
rwrist -18.9562
rhand -21.4917 -0.1907
rfingers 7.12502
rthumb 4.89959 -30.1141
lclavicle 1.50331e-014 -2.22639e-014
lhumerus -15.6341 39.7165 -3.77303
lradius 12.3641
lwrist -25.4945
lhand -21.5689 8.80269
lfingers 7.12502
lthumb 4.82508 38.7277
rfemur 4.09392 17.6182 24.5107
rtibia 23.2613
rfoot -24.4197 -15.2559
rtoes -17.4354
lfemur -0.108721 -12.2534 -15.2867
ltibia 35.4381
lfoot -29.7141 8.38671
ltoes -18.3336
4
root 1.97123 17.4747 -1.3909 59.7181 -85.3902 -65.5938
lowerback 6.28761 -1.20897 3.9864
upperback -0.0887103 -1.34267 -0.527067
thorax -3.72535 -0.748605 -2.65764
lowerneck 1.46826 1.50546 -3.27354
upperneck 9.53103 1.84717 0.541935
head 2.73413 0.74896 0.764684
rclavicle -4.05024e-015 -7.15625e-015
rhumerus -14.9908 10.9886 -11.9216
rradius 19.1252
rwrist -19.0171
rhand -21.5171 -0.174008
rfingers 7.12502
rthumb 4.87504 -30.0979
lclavicle -4.05024e-015 -7.15625e-015
lhumerus -15.6684 39.8155 -3.77503
lradius 12.3786
lwrist -25.6348
lhand -21.6455 8.95409
lfingers 7.12502
lthumb 4.75107 38.8808
rfemur 4.08446 17.5776 24.4999
rtibia 23.2569
rfoot -24.4137 -15.2315
rtoes -17.4385
lfemur -0.123244 -12.2646 -15.2828
ltibia 35.4406
lfoot -29.7133 8.3837
ltoes -18.3342
5
root 1.97056 17.4748 -1.39027 59.5124 -85.3821 -65.3888
lowerback 6.29207 -1.21231 3.97198
upperback -0.0830845 -1.34735 -0.504678
thorax -3.72146 -0.750321 -2.62581
lowerneck 1.48206 1.51255 -3.29469
upperneck 9.51435 1.85792 0.522034
head 2.7258 0.75324 0.761779
rclavicle 9.19379e-016 -5.56597e-015
rhumerus -14.9906 11.0736 -11.9057
rradius 19.1334
rwrist -19.1585
rhand -21.5318 -0.184424
rfingers 7.12502
rthumb 4.86082 -30.1087
lclavicle 9.19379e-016 -5.56597e-015
lhumerus -15.7244 39.8037 -3.7528
lradius 12.4078
lwrist -25.6836
lhand -21.7018 9.10248
lfingers 7.12502
lthumb 4.69673 39.0304
rfemur 4.09376 17.6212 24.5139
rtibia 23.2551
rfoot -24.4344 -15.2872
rtoes -17.4284
lfemur -0.128243 -12.2473 -15.2757
ltibia 35.4411
lfoot -29.7247 8.35207
ltoes -18.4045
6
root 1.96975 17.4746 -1.39006 59.412 -85.3805 -65.2895
lowerback 6.29656 -1.20623 3.9684
upperback -0.0814265 -1.33945 -0.5073
thorax -3.72163 -0.746339 -2.62724
lowerneck 1.4561 1.50748 -3.27196
upperneck 9.54844 1.85266 0.508588
head 2.74236 0.750393 0.754094
rclavicle -2.78299e-015 -3.18055e-015
rhumerus -15.0572 11.2211 -11.9274
rradius 19.1645
rwrist -19.3298
rhand -21.5959 -0.191499
rfingers 7.12502
rthumb 4.79902 -30.1171
lclavicle -2.78299e-015 -3.18055e-015
lhumerus -15.7099 39.8306 -3.7181
lradius 12.412
lwrist -25.7551
lhand -21.8731 9.16316
lfingers 7.12502
lthumb 4.53133 39.0947
rfemur 4.09598 17.5761 24.5045
rtibia 23.2519
rfoot -24.4118 -15.2748
rtoes -17.4947
lfemur -0.124084 -12.2614 -15.2838
ltibia 35.4425
lfoot -29.7341 8.35299
ltoes -18.4237
7
root 1.96941 17.4743 -1.38964 59.0883 -85.3846 -64.9752
lowerback 6.31261 -1.21342 3.95734
upperback -0.0732066 -1.34957 -0.512373
thorax -3.72274 -0.751127 -2.6251
lowerneck 1.41304 1.51486 -3.25966
upperneck 9.58835 1.86425 0.505061
head 2.76354 0.75582 0.751948
rclavicle -1.51573e-015 -6.75868e-015
rhumerus -15.0427 11.0744 -11.9388
rradius 19.1208
rwrist -19.2079
rhand -21.5958 -0.182209
rfingers 7.12502
rthumb 4.79908 -30.1079
lclavicle -1.51573e-015 -6.75868e-015
lhumerus -15.7052 39.7388 -3.70155
lradius 12.3841
lwrist -25.7163
lhand -22.062 9.26545
lfingers 7.12502
lthumb 4.34892 39.2008
rfemur 4.11788 17.5924 24.5001
rtibia 23.2502
rfoot -24.4305 -15.3062
rtoes -17.4882
lfemur -0.114462 -12.2832 -15.3075
ltibia 35.4422
lfoot -29.7334 8.35732
ltoes -18.4241
8
root 1.96877 17.4743 -1.389 58.8839 -85.3764 -64.7715
lowerback 6.30912 -1.21342 3.95325
upperback -0.0598071 -1.3499 -0.49905
thorax -3.70644 -0.750628 -2.60913
lowerneck 1.395 1.51406 -3.26282
upperneck 9.58872 1.86639 0.47614
head 2.76712 0.756005 0.743451
rclavicle 2.70844e-015 -1.47101e-014
rhumerus -15.059 11.1046 -11.9307
rradius 19.1335
rwrist -19.3053
rhand -21.6102 -0.19432
rfingers 7.12502
rthumb 4.78513 -30.1203
lclavicle 2.70844e-015 -1.47101e-014
lhumerus -15.7631 39.901 -3.69387
lradius 12.4106
lwrist -25.9462
lhand -22.2613 9.27768
lfingers 7.12502
lthumb 4.15649 39.2169
rfemur 4.12057 17.5786 24.4977
rtibia 23.2558
rfoot -24.4249 -15.309
rtoes -17.4154
lfemur -0.11846 -12.2573 -15.2972
ltibia 35.4382
lfoot -29.7259 8.31606
ltoes -18.427
9
root 1.9682 17.4746 -1.38891 58.8274 -85.3735 -64.7022
lowerback 6.30189 -1.21254 3.9487
upperback -0.0578025 -1.3492 -0.492851
thorax -3.69997 -0.749989 -2.60035
lowerneck 1.36765 1.5158 -3.2729
upperneck 9.5975 1.8704 0.473605
head 2.77496 0.757553 0.744858
rclavicle 9.93923e-017 -4.37326e-015
rhumerus -15.098 11.3228 -11.9455
rradius 19.1555
rwrist -19.5533
rhand -21.6522 -0.20216
rfingers 7.12502
rthumb 4.74463 -30.129
lclavicle 9.93923e-017 -4.37326e-015
lhumerus -15.7678 39.9222 -3.67942
lradius 12.3834
lwrist -26.0128
lhand -22.5437 9.31151
lfingers 7.12502
lthumb 3.88371 39.2559
rfemur 4.10583 17.5641 24.4896
rtibia 23.2585
rfoot -24.4249 -15.2993
rtoes -17.4163
lfemur -0.129399 -12.2678 -15.2977
ltibia 35.4345
lfoot -29.7242 8.32191
ltoes -18.4266
10
root 1.96763 17.4756 -1.3888 58.5641 -85.3837 -64.4317
lowerback 6.30278 -1.21016 3.91892
upperback -0.0595846 -1.34778 -0.482915
thorax -3.70123 -0.748691 -2.5734
lowerneck 1.35058 1.52462 -3.28737
upperneck 9.63596 1.88252 0.473563
head 2.79076 0.762221 0.748112
rclavicle -4.07509e-015 1.47101e-014
rhumerus -15.1203 11.3771 -11.9387
rradius 19.1711
rwrist -19.6579
rhand -21.6633 -0.214004
rfingers 7.12502
rthumb 4.73389 -30.1411
lclavicle -4.07509e-015 1.47101e-014
lhumerus -15.802 39.9054 -3.6527
lradius 12.3947
lwrist -26.0511
lhand -22.8401 9.28828
lfingers 7.12502
lthumb 3.59748 39.2377
rfemur 4.10478 17.5883 24.4757
rtibia 23.2614
rfoot -24.4414 -15.3328
rtoes -17.4154
lfemur -0.138012 -12.2634 -15.3203
ltibia 35.4301
lfoot -29.7111 8.33506
ltoes -18.486
11
root 1.967 17.4755 -1.38816 58.3608 -85.3753 -64.2291
lowerback 6.30448 -1.21652 3.92594
upperback -0.0467487 -1.35606 -0.484348
thorax -3.68968 -0.752579 -2.57813
lowerneck 1.30661 1.52649 -3.27525
upperneck 9.65226 1.88834 0.456298
head 2.80439 0.76493 0.741273
rclavicle -6.95746e-016 -5.96354e-015
rhumerus -15.1316 11.3906 -11.9569
rradius 19.1678
rwrist -19.743
rhand -21.6724 -0.212743
rfingers 7.12502
rthumb 4.72514 -30.1401
lclavicle -6.95746e-016 -5.96354e-015
lhumerus -15.791 39.7928 -3.61915
lradius 12.3843
lwrist -25.9379
lhand -23.1939 9.32896
lfingers 7.12502
lthumb 3.25584 39.2838
rfemur 4.10921 17.5729 24.4727
rtibia 23.263
rfoot -24.4487 -15.3329
rtoes -17.4148
lfemur -0.136874 -12.2855 -15.3271
ltibia 35.4285
lfoot -29.7099 8.34123
ltoes -18.4859
12
root 1.96622 17.4753 -1.38799 58.2612 -85.3735 -64.1305
lowerback 6.31009 -1.21346 3.91416
upperback -0.0466379 -1.35212 -0.469809
thorax -3.69177 -0.750319 -2.55671
lowerneck 1.31628 1.53235 -3.30691
upperneck 9.64334 1.8962 0.45658
head 2.79926 0.76786 0.746748
rclavicle -2.55935e-015 -9.54166e-015
rhumerus -15.1631 11.6629 -11.965
rradius 19.2047
rwrist -20.0281
rhand -21.7341 -0.30137
rfingers 7.12502
rthumb 4.66552 -30.23
lclavicle -2.55935e-015 -9.54166e-015
lhumerus -15.859 39.9437 -3.62371
lradius 12.4041
lwrist -26.1511
lhand -23.4832 9.29846
lfingers 7.12502
lthumb 2.97649 39.2574
rfemur 4.12003 17.6019 24.4815
rtibia 23.2646
rfoot -24.4677 -15.3652
rtoes -17.4086
lfemur -0.137161 -12.2601 -15.321
ltibia 35.4275
lfoot -29.7081 8.31006
ltoes -18.4882
